# xmcd
#
# Track frame offsets:
#       182
#       12472
#       30195
#       46637
#       68870
#       80752
#       93730
#       112107
#       127082
#       144037
#       158377
#       176770
#       194660
#       211900
#       229062
#       253652
#       273725
#       287637
#       306107
#       325182
#
# Disc length: 4521 seconds
#
# Revision: 0
# Processed by: cddbd v1.4PL0 Copyright (c) Steve Scherf et al.
# Submitted via: WhereIsIt 3.25
#
DISCID=1d11a714
DTITLE=John Denver - Songs From My Heart
DYEAR=1900
DGENRE=
TTITLE0=Love Is The Master
TTITLE1=Heart To Heart
TTITLE2=I Can't Escape
TTITLE3=Falling Out Of Love
TTITLE4=It Amazes Me
TTITLE5=Love Again
TTITLE6=Singing Skies, Dancing Waters
TTITLE7=For You
TTITLE8=Is It Love
TTITLE9=How Can I Leave You Again
TTITLE10=Wild Montana Skies (with Emmy Lou Harris)
TTITLE11=Ripplin' Waters
TTITLE12=Seasons Of The Heart
TTITLE13=Come And Let Me Look In Your Eyes
TTITLE14=Sweet Surrender
TTITLE15=What's On Your Mind
TTITLE16=Rocky Mountain Suite (Cold Nights In Canada)
TTITLE17=Dreamland Express
TTITLE18=Don't Close Your Eyes Tonight
TTITLE19=You're So Beautiful
EXTD=
EXTT0=
EXTT1=
EXTT2=
EXTT3=
EXTT4=
EXTT5=
EXTT6=
EXTT7=
EXTT8=
EXTT9=
EXTT10=
EXTT11=
EXTT12=
EXTT13=
EXTT14=
EXTT15=
EXTT16=
EXTT17=
EXTT18=
EXTT19=
PLAYORDER=
